<svg width="74" height="82" viewBox="0 0 74 82" fill="#fff" xmlns="http://www.w3.org/2000/svg">
<path d="M33.3566 2.56813C35.57 1.29263 38.2973 1.29263 40.5107 2.56813L68.4365 18.6608C70.6497 19.9361 72.012 22.2924 72.012 24.8413V57.0265C72.012 59.5754 70.6497 61.9316 68.4365 63.207L40.5107 79.2996C38.2973 80.5751 35.57 80.5751 33.3566 79.2996L5.43082 63.207C3.21765 61.9316 1.85528 59.5754 1.85528 57.0265V24.8413C1.85528 22.2924 3.21765 19.9361 5.43082 18.6608L33.3566 2.56813Z" stroke="#67738A" stroke-width="2.12194"/>
<rect x="25.5612" y="36.3018" width="3.07795" height="5.92791" fill="#67738A"/>
<rect x="30.691" y="30.374" width="2.96396" height="11.8558" fill="#67738A"/>
<rect x="35.707" y="24.446" width="3.07795" height="17.7837" fill="#67738A"/>
<path fill-rule="evenodd" clip-rule="evenodd" d="M44.7437 17.7648C45.9076 17.7648 46.7396 16.8886 46.7396 15.796C46.7396 14.7019 45.8378 13.8 44.7437 13.8C43.6437 13.8 42.7749 14.7079 42.7749 15.796C42.7749 16.9009 43.6055 17.7648 44.7437 17.7648Z" fill="#67738A"/>
<path d="M48.7175 19.7279H45.8602V29.4841H43.7223V19.7279H40.8369V42.2298H43.7085V32.0316H45.8465V42.2298H48.7175V19.7279Z" fill="#67738A"/>
<path d="M17.3238 46.3069V49.8673C17.3238 50.7389 17.5294 51.224 18.5079 51.224C19.4946 51.224 19.6672 50.6649 19.6672 49.7851V46.3069H21.0733V49.6699C21.0733 51.5036 20.3661 52.3751 18.5079 52.3751C16.7236 52.3751 15.9178 51.6845 15.9178 49.7193V46.3069H17.3238Z" fill="#67738A"/>
<path d="M26.4455 47.3841L23.362 51.0267H26.4866V52.2683H21.512V51.1911L24.6119 47.5403H21.7504V46.3069H26.4455V47.3841Z" fill="#67738A"/>
<path d="M29.8352 52.2683L28.4949 47.4992V52.2683H27.13V46.3069H29.3501L30.493 50.5826L31.6606 46.3069H33.856V52.2683H32.4911V47.491L31.159 52.2683H29.8352Z" fill="#67738A"/>
<path d="M37.5004 52.3751C35.6668 52.3751 34.4087 51.15 34.4087 49.2917C34.4087 47.4334 35.6668 46.2083 37.5004 46.2083C39.3258 46.2083 40.5921 47.4334 40.5921 49.2917C40.5921 51.15 39.3258 52.3751 37.5004 52.3751ZM37.5004 51.2158C38.372 51.2158 39.1038 50.558 39.1038 49.2917C39.1038 48.0254 38.372 47.3676 37.5004 47.3676C36.6288 47.3676 35.897 48.0254 35.897 49.2917C35.897 50.558 36.6288 51.2158 37.5004 51.2158Z" fill="#67738A"/>
<path d="M41.1504 46.3069H43.7487C45.0561 46.3069 46.0263 46.6112 46.0263 47.8528C46.0263 48.3954 45.7714 48.8148 45.3192 49.0944C45.8701 49.2917 46.2648 49.711 46.2648 50.4346C46.2648 51.7667 45.3028 52.2683 43.8556 52.2683H41.1504V46.3069ZM42.5564 48.6915H43.798C44.2832 48.6915 44.5627 48.453 44.5627 48.083C44.5627 47.713 44.2832 47.491 43.798 47.491H42.5564V48.6915ZM42.5564 51.0842H43.872C44.4723 51.0842 44.7765 50.8293 44.7765 50.41C44.7765 49.9906 44.4723 49.7357 43.872 49.7357H42.5564V51.0842Z" fill="#67738A"/>
<path d="M48.2618 52.2683H46.8557V46.3069H48.2618V52.2683Z" fill="#67738A"/>
<path d="M50.5785 51.0267H53.44V52.2683H49.1725V46.3069H50.5785V51.0267Z" fill="#67738A"/>
<path d="M53.8099 46.3069H58.3816V47.5403H55.2159V48.5846H58.2089V49.8262H55.2159V51.0267H58.3816V52.2683H53.8099V46.3069Z" fill="#67738A"/>
<path d="M12.9778 57.089H11.0702V55.8557H16.3079V57.089H14.3921V61.817H12.9778V57.089Z" fill="#67738A"/>
<path d="M17.7737 55.8557H19.3196L21.5725 61.817H20.0432L19.6814 60.7563H17.3791L17.0255 61.817H15.529L17.7737 55.8557ZM17.7655 59.6134H19.3031L18.5384 57.3439L17.7655 59.6134Z" fill="#67738A"/>
<path d="M24.2663 59.5722H23.3125V61.817H21.9065V55.8557H24.2005C25.7464 55.8557 26.9058 56.2175 26.9058 57.6975C26.9058 58.5773 26.4206 59.0789 25.7382 59.342L27.21 61.817H25.5573L24.2663 59.5722ZM23.3125 57.0397V58.3882H24.2417C24.9077 58.3882 25.4175 58.2731 25.4175 57.714C25.4175 57.163 24.9077 57.0397 24.2417 57.0397H23.3125Z" fill="#67738A"/>
<path d="M30.3732 61.817L29.0329 57.0479V61.817H27.668V55.8557H29.8881L31.031 60.1314L32.1986 55.8557H34.394V61.817H33.0291V57.0397L31.697 61.817H30.3732Z" fill="#67738A"/>
<path d="M38.0384 61.9239C36.2048 61.9239 34.9467 60.6987 34.9467 58.8404C34.9467 56.9822 36.2048 55.757 38.0384 55.757C39.8638 55.757 41.1301 56.9822 41.1301 58.8404C41.1301 60.6987 39.8638 61.9239 38.0384 61.9239ZM38.0384 60.7645C38.91 60.7645 39.6418 60.1067 39.6418 58.8404C39.6418 57.5742 38.91 56.9164 38.0384 56.9164C37.1668 56.9164 36.435 57.5742 36.435 58.8404C36.435 60.1067 37.1668 60.7645 38.0384 60.7645Z" fill="#67738A"/>
<path d="M47.2018 57.7222H45.8205C45.6971 57.3111 45.2778 56.9164 44.5131 56.9164C43.6497 56.9164 42.9755 57.5577 42.9755 58.8158C42.9755 60.0738 43.6004 60.7645 44.5377 60.7645C45.1873 60.7645 45.8616 60.5178 45.8616 59.7614V59.6463H44.4226V58.4951H47.2676V61.817H46.1905L46.1494 61.1592C45.7629 61.6772 45.1791 61.9239 44.324 61.9239C42.5643 61.9239 41.4872 60.7234 41.4872 58.8158C41.4872 56.9328 42.7206 55.757 44.5295 55.757C45.8534 55.757 46.9223 56.423 47.2018 57.7222Z" fill="#67738A"/>
<path d="M49.1358 55.8557L48.9549 57.9442H47.9518L47.7709 55.8557H49.1358Z" fill="#67738A"/>
<path d="M51.1085 61.817H49.7025V55.8557H51.1085V61.817Z" fill="#67738A"/>
<path d="M53.9844 55.8557C55.9331 55.8557 57.4708 56.5628 57.4708 58.8322C57.4708 61.1099 55.9331 61.817 53.9844 61.817H52.0192V55.8557H53.9844ZM54.0091 57.0397H53.4253V60.633H54.0091C55.0451 60.633 55.9825 60.4109 55.9825 58.8322C55.9825 57.2617 55.0451 57.0397 54.0091 57.0397Z" fill="#67738A"/>
<path d="M59.4096 55.8557H60.9554L63.2084 61.817H61.679L61.3172 60.7563H59.0149L58.6614 61.817H57.1648L59.4096 55.8557ZM59.4014 59.6134H60.939L60.1743 57.3439L59.4014 59.6134Z" fill="#67738A"/>
</svg>
